<?xml version="1.0" encoding="utf-8"?>
<!-- Svg Vector Icons : http://www.onlinewebfonts.com/icon -->
<!DOCTYPE svg PUBLIC "-//W3C//DTD SVG 1.1//EN" "http://www.w3.org/Graphics/SVG/1.1/DTD/svg11.dtd">
<svg version="1.1" xmlns="http://www.w3.org/2000/svg" xmlns:xlink="http://www.w3.org/1999/xlink" x="0px" y="0px" viewBox="0 0 1000 1000" enable-background="new 0 0 1000 1000" xml:space="preserve">
<metadata> Svg Vector Icons : http://www.onlinewebfonts.com/icon </metadata>
<g><g><polygon points="726.7,704 726.7,990 930.7,990 930.7,821.9 "/><polygon points="644.8,544.3 644.8,339.6 355.1,339.6 355.1,544.3 500,458.6 "/><polygon points="69.3,990 273.3,990 273.3,703.8 69.3,821.9 "/><path d="M294.6,604.8v385.1h410.8V604.8L500,483.3L294.6,604.8z M490.8,974.3h-76.7V795.4h76.7V974.3L490.8,974.3z M585.9,974.3h-76.7V795.4h76.7V974.3z M589.5,711.3H410.5c0-49.4,40.1-89.5,89.5-89.5C549.4,621.8,589.5,661.9,589.5,711.3z"/><polygon points="386.1,319.4 613.9,319.4 510.7,126.6 510.7,64.3 553.3,64.3 553.3,43 510.7,43 510.7,10 489.3,10 489.3,43 446.7,43 446.7,64.3 489.3,64.3 489.3,126.6 "/></g><g></g><g></g><g></g><g></g><g></g><g></g><g></g><g></g><g></g><g></g><g></g><g></g><g></g><g></g><g></g></g>
</svg>